# xmcd
#
# Track frame offsets: 
#        182
#        17935
#        36782
#        56262
#        78745
#        98870
#        112795
#        129840
#        158935
#        175102
#        202650
#
# Disc length: 2942 seconds
#
# Revision: 1
# Processed by: cddbd v1.5.2PL0 Copyright (c) Steve Scherf et al.
# Submitted via: ExactAudioCopy v0.99pb5
#
DISCID=7d0b7c0b
DTITLE=Interpol - Turn On The Bright Lights
DYEAR=2002
DGENRE=Indie
TTITLE0=Untitled
TTITLE1=Obstacle 1
TTITLE2=NYC
TTITLE3=PDA
TTITLE4=Say Hello To The Angels
TTITLE5=Hands Away
TTITLE6=Obstacle 2
TTITLE7=Stella Was A Diver And She Was Always Down
TTITLE8=Roland
TTITLE9=The New
TTITLE10=Leif Erikson
EXTD=
EXTT0=
EXTT1=
EXTT2=
EXTT3=
EXTT4=
EXTT5=
EXTT6=
EXTT7=
EXTT8=
EXTT9=
EXTT10=
PLAYORDER=
